<svg xmlns="http://www.w3.org/2000/svg" width="256" height="256" viewBox="0 0 256 256">
  <g fill="none" transform="translate(0 10)">
    <path fill="#334E68" d="M32.1826126,207.485104 C32.1826126,199.72107 32.4721946,192.211526 32.9669419,184.888889 L16.0910391,203.509897 L0,235.313131 L28.1599864,227.362191 L53.6565657,206.805058 C46.6649218,207.242758 39.5124584,207.485104 32.1826126,207.485104 Z"/>
    <path fill="#D9E2EC" d="M167.244809,126.504375 C172.760776,128.738906 178.432706,130.694651 184.343883,132.211016 C192.731888,134.405797 201.111405,135.802379 209.463337,136.448994 C209.463337,136.448994 209.419307,136.488745 209.37952,136.529026 C207.350421,137.877907 174.597841,159.626958 128.18478,159.626958 C140.487222,166.65068 154.306847,170.56164 167.328095,172.796172 C132.099218,194.944322 86.80866,207.515152 32.3232323,207.515152 C32.3232323,67.8415632 112.207679,0 256,0 C256,47.2495287 243.537882,89.5508634 219.616791,123.391613 C202.877384,127.661392 185.143322,128.858689 167.244809,126.504375 Z"/>
    <path fill="#FFF" d="M256,0 C112.207679,0 32.3232323,67.8415632 32.3232323,207.515152 C38.0110762,207.515152 43.5710735,207.347668 49.0552117,207.080011 L255.992043,0.322777437 C255.992043,0.215184958 256,0.107592479 256,0 Z"/>
  </g>
</svg>
